<mxfile host="app.diagrams.net" agent="Mozilla/5.0 (Windows NT 10.0; Win64; x64) AppleWebKit/537.36 (KHTML, like Gecko) Chrome/140.0.0.0 Safari/537.36" version="28.2.3">
  <diagram name="第 1 页" id="7vH5vC6cQCNAFp6cAhGH">
    <mxGraphModel dx="2627" dy="623" grid="1" gridSize="10" guides="1" tooltips="1" connect="1" arrows="1" fold="1" page="1" pageScale="1" pageWidth="827" pageHeight="1169" math="0" shadow="0">
      <root>
        <mxCell id="0" />
        <mxCell id="1" parent="0" />
        <mxCell id="GbW4LYhHCxAWFrPd17BB-1" value="" style="rounded=0;whiteSpace=wrap;html=1;fillColor=none;movable=0;resizable=0;rotatable=0;deletable=0;editable=0;locked=1;connectable=0;" parent="1" vertex="1">
          <mxGeometry x="-66" y="315" width="960" height="540" as="geometry" />
        </mxCell>
        <mxCell id="GbW4LYhHCxAWFrPd17BB-2" value="" style="rounded=0;whiteSpace=wrap;html=1;movable=0;resizable=0;rotatable=0;deletable=0;editable=0;locked=1;connectable=0;" parent="1" vertex="1">
          <mxGeometry x="-50" y="330" width="60" height="60" as="geometry" />
        </mxCell>
        <mxCell id="GbW4LYhHCxAWFrPd17BB-5" value="头像" style="text;strokeColor=none;align=center;fillColor=none;html=1;verticalAlign=middle;whiteSpace=wrap;rounded=0;movable=0;resizable=0;rotatable=0;deletable=0;editable=0;locked=1;connectable=0;" parent="1" vertex="1">
          <mxGeometry x="-50" y="345" width="60" height="30" as="geometry" />
        </mxCell>
        <mxCell id="GbW4LYhHCxAWFrPd17BB-8" value="" style="group;movable=0;resizable=0;rotatable=0;deletable=0;editable=0;locked=1;connectable=0;" parent="1" vertex="1" connectable="0">
          <mxGeometry x="20" y="325" width="120" height="30" as="geometry" />
        </mxCell>
        <mxCell id="GbW4LYhHCxAWFrPd17BB-3" value="" style="rounded=0;whiteSpace=wrap;html=1;movable=0;resizable=0;rotatable=0;deletable=0;editable=0;locked=1;connectable=0;" parent="GbW4LYhHCxAWFrPd17BB-8" vertex="1">
          <mxGeometry y="5" width="120" height="20" as="geometry" />
        </mxCell>
        <mxCell id="GbW4LYhHCxAWFrPd17BB-6" value="血条" style="text;strokeColor=none;align=center;fillColor=none;html=1;verticalAlign=middle;whiteSpace=wrap;rounded=0;movable=0;resizable=0;rotatable=0;deletable=0;editable=0;locked=1;connectable=0;" parent="GbW4LYhHCxAWFrPd17BB-8" vertex="1">
          <mxGeometry x="30" width="60" height="30" as="geometry" />
        </mxCell>
        <mxCell id="GbW4LYhHCxAWFrPd17BB-9" value="" style="group;movable=0;resizable=0;rotatable=0;deletable=0;editable=0;locked=1;connectable=0;" parent="1" vertex="1" connectable="0">
          <mxGeometry x="20" y="355" width="120" height="30" as="geometry" />
        </mxCell>
        <mxCell id="GbW4LYhHCxAWFrPd17BB-4" value="" style="rounded=0;whiteSpace=wrap;html=1;movable=0;resizable=0;rotatable=0;deletable=0;editable=0;locked=1;connectable=0;" parent="GbW4LYhHCxAWFrPd17BB-9" vertex="1">
          <mxGeometry y="5" width="120" height="20" as="geometry" />
        </mxCell>
        <mxCell id="GbW4LYhHCxAWFrPd17BB-7" value="蓝条" style="text;strokeColor=none;align=center;fillColor=none;html=1;verticalAlign=middle;whiteSpace=wrap;rounded=0;movable=0;resizable=0;rotatable=0;deletable=0;editable=0;locked=1;connectable=0;" parent="GbW4LYhHCxAWFrPd17BB-9" vertex="1">
          <mxGeometry x="30" width="60" height="30" as="geometry" />
        </mxCell>
        <mxCell id="LeFxqRsWZW-WV--C6w6B-1" value="面板" style="rounded=0;whiteSpace=wrap;html=1;fillColor=none;movable=1;resizable=1;rotatable=1;deletable=1;editable=1;locked=0;connectable=1;" parent="1" vertex="1">
          <mxGeometry x="827" y="790" width="60" height="60" as="geometry" />
        </mxCell>
        <mxCell id="LeFxqRsWZW-WV--C6w6B-6" value="人物大小&lt;div&gt;参照&lt;/div&gt;" style="rounded=0;whiteSpace=wrap;html=1;movable=0;resizable=0;rotatable=0;deletable=0;editable=0;locked=1;connectable=0;" parent="1" vertex="1">
          <mxGeometry x="365" y="490" width="85" height="110" as="geometry" />
        </mxCell>
        <mxCell id="LeFxqRsWZW-WV--C6w6B-7" value="" style="group;movable=1;resizable=1;rotatable=1;deletable=1;editable=1;locked=0;connectable=1;" parent="1" vertex="1" connectable="0">
          <mxGeometry x="-50" y="790" width="310" height="60" as="geometry" />
        </mxCell>
        <mxCell id="GbW4LYhHCxAWFrPd17BB-10" value="" style="rounded=0;whiteSpace=wrap;html=1;fillColor=none;movable=1;resizable=1;rotatable=1;deletable=1;editable=1;locked=0;connectable=1;" parent="LeFxqRsWZW-WV--C6w6B-7" vertex="1">
          <mxGeometry x="-10" width="310" height="60" as="geometry" />
        </mxCell>
        <mxCell id="YEtvAxV50EpJcjjE0ExS-2" value="" style="rounded=0;whiteSpace=wrap;html=1;fillColor=none;movable=0;resizable=0;rotatable=0;deletable=0;editable=0;locked=1;connectable=0;" parent="LeFxqRsWZW-WV--C6w6B-7" vertex="1">
          <mxGeometry x="60" y="5" width="50" height="50" as="geometry" />
        </mxCell>
        <mxCell id="YEtvAxV50EpJcjjE0ExS-3" value="" style="rounded=0;whiteSpace=wrap;html=1;fillColor=none;movable=0;resizable=0;rotatable=0;deletable=0;editable=0;locked=1;connectable=0;" parent="LeFxqRsWZW-WV--C6w6B-7" vertex="1">
          <mxGeometry x="120" y="5" width="50" height="50" as="geometry" />
        </mxCell>
        <mxCell id="GbW4LYhHCxAWFrPd17BB-11" value="技能条，5个格子" style="text;strokeColor=none;align=center;fillColor=none;html=1;verticalAlign=middle;whiteSpace=wrap;rounded=0;movable=0;resizable=0;rotatable=0;deletable=0;editable=0;locked=1;connectable=0;" parent="LeFxqRsWZW-WV--C6w6B-7" vertex="1">
          <mxGeometry x="102.5" y="15" width="95" height="30" as="geometry" />
        </mxCell>
        <mxCell id="YEtvAxV50EpJcjjE0ExS-1" value="" style="rounded=0;whiteSpace=wrap;html=1;fillColor=none;movable=0;resizable=0;rotatable=0;deletable=0;editable=0;locked=1;connectable=0;" parent="LeFxqRsWZW-WV--C6w6B-7" vertex="1">
          <mxGeometry y="5" width="50" height="50" as="geometry" />
        </mxCell>
        <mxCell id="YEtvAxV50EpJcjjE0ExS-4" value="" style="rounded=0;whiteSpace=wrap;html=1;fillColor=none;movable=0;resizable=0;rotatable=0;deletable=0;editable=0;locked=1;connectable=0;" parent="LeFxqRsWZW-WV--C6w6B-7" vertex="1">
          <mxGeometry x="180" y="5" width="50" height="50" as="geometry" />
        </mxCell>
        <mxCell id="YEtvAxV50EpJcjjE0ExS-5" value="" style="rounded=0;whiteSpace=wrap;html=1;fillColor=none;movable=0;resizable=0;rotatable=0;deletable=0;editable=0;locked=1;connectable=0;" parent="LeFxqRsWZW-WV--C6w6B-7" vertex="1">
          <mxGeometry x="240" y="5" width="50" height="50" as="geometry" />
        </mxCell>
        <mxCell id="tZ2XyZjL5lA_l6-Axlm9-1" value="面板包含了角色、背包、技能等面板" style="whiteSpace=wrap;html=1;shape=mxgraph.basic.roundRectCallout;dx=30;dy=15;size=5;boundedLbl=1;" vertex="1" parent="1">
          <mxGeometry x="920" y="770" width="100" height="60" as="geometry" />
        </mxCell>
      </root>
    </mxGraphModel>
  </diagram>
</mxfile>
